<svg t="1697181596519" class="icon" viewBox="0 0 1099 1024" version="1.1" xmlns="http://www.w3.org/2000/svg" p-id="9344"
	width="200" height="200">
	<path
		d="M422.684444 179.920593a94.663111 94.663111 0 0 1 92.994371 0l219.022222 124.510814a91.515259 91.515259 0 0 1 46.497185 79.265186v106.799407l-109.454222 12.363852c-0.075852 16.156444-29.468444 11.908741-37.660444 25.865481-8.154074 13.918815-20.214519 15.625481-34.247112 23.589926l-38.684444 45.511111-16.687407 80.554667 44.259555 116.432593-73.083259 41.566814a94.738963 94.738963 0 0 1-93.070222 0l-219.022223-124.54874a91.401481 91.401481 0 0 1-46.497185-79.265185v-248.907852c0-32.540444 17.825185-62.957037 46.497185-79.265186l219.136-124.472888z m46.497186 33.754074c-10.315852 0-20.631704 2.541037-29.847704 7.81274L231.803259 339.361185a58.709333 58.709333 0 0 0-29.847703 50.896593v235.785481c0 20.973037 11.415704 40.429037 29.771851 50.820741l207.606519 117.94963a60.681481 60.681481 0 0 0 59.657481 0l67.584-38.381037-18.962963-41.14963-9.557333-47.407407 14.222222-66.522075c9.02637-5.082074 15.928889-31.099259 21.238519-40.049777 5.195852-8.950519 20.100741-4.247704 20.100741-14.601482l86.281481-56.206222 56.50963-4.475259v-95.838815a58.785185 58.785185 0 0 0-29.88563-50.896593l-207.454815-117.873777a60.984889 60.984889 0 0 0-29.885629-7.774815z m9.02637 124.245333c39.329185 0 70.618074 9.329778 95.649185 28.444444 16.004741 12.212148 27.875556 28.747852 35.650371 49.076149 5.688889 14.753185-6.295704 30.492444-22.224593 30.492444h-3.034074a22.983111 22.983111 0 0 1-21.466074-14.260148 70.656 70.656 0 0 0-22.224593-30.568296c-15.701333-12.212148-36.67437-18.394074-62.426074-18.394074-30.682074 0-55.333926 11.832889-73.272889 35.081481-18.24237 22.565926-27.003259 52.754963-27.003259 92.387556 0 38.07763 8.647111 68.608 25.751704 90.642963 16.839111 21.69363 41.718519 32.692148 73.841777 32.692148 29.089185 0 51.275852-7.623111 66.977186-23.096889 6.788741-6.674963 12.363852-14.791111 16.725333-24.386371 3.792593-8.078222 12.515556-12.667259 21.466074-12.667259 17.445926 0-11.112296 12.439704-18.773333 27.989333-7.319704 15.056593 3.90637 27.041185-8.685037 38.115556-7.812741 6.712889 1.896296 19.64563-7.54726 24.272593-19.949037 9.709037-43.425185 14.639407-70.087111 14.639407-48.355556 0-86.357333-16.611556-113.019259-49.303704-24.689778-29.354667-37.243259-69.366519-37.243259-118.897777 0-48.696889 12.970667-89.239704 38.456889-120.566519 27.117037-34.247111 64.967111-51.693037 112.488296-51.693037z"
		fill="#5E48CB" p-id="9345"></path>
	<path
		d="M669.316741 783.018667a13.084444 13.084444 0 0 1-9.178074-3.527111 12.894815 12.894815 0 0 1-3.830519-9.481482c0-8.495407 3.147852-15.625481 9.481482-21.352296 29.202963-26.661926 51.162074-49.872593 65.763555-69.632 14.601481-19.721481 21.921185-37.432889 21.921185-53.020445 0-11.45363-2.958222-20.366222-8.874666-26.661926-5.916444-6.523259-14.222222-9.784889-24.879408-9.784888-9.709037 0-19.26637 3.754667-28.747852 11.264a20.859259 20.859259 0 0 1-12.743111 4.437333 17.066667 17.066667 0 0 1-17.180444-17.180445c0-4.740741 1.896296-8.722963 5.613037-11.870814a87.684741 87.684741 0 0 1 58.974815-21.921186c21.124741 0 38.115556 6.33363 50.972444 18.962963 13.008593 12.667259 19.531852 29.354667 19.531852 50.062223 0 33.98163-24.272593 74.979556-72.89363 122.993777-0.379259 0.18963-0.493037 0.493037-0.303407 0.872297 0.227556 0.379259 0.530963 0.493037 0.910222 0.303407 14.032593-1.403259 25.41037-2.085926 34.057482-2.085926h31.402666c4.740741 0 8.798815 1.782519 12.136297 5.30963 3.602963 3.413333 5.347556 7.433481 5.347555 12.174222v2.654815a17.066667 17.066667 0 0 1-5.309629 12.477629 16.57363 16.57363 0 0 1-12.136297 5.044149h-120.035555z"
		fill="#5E48CB" p-id="9346"></path>
</svg>