<svg t="1697008133809" class="icon" viewBox="0 0 1024 1024" version="1.1" xmlns="http://www.w3.org/2000/svg"
	p-id="22523" width="200" height="200">
	<path
		d="M882.551 256.874l-0.029-0.008a138.36 138.36 0 0 0-2.96-0.796c-109.212-29.659-253.526-45.593-366.594-45.593-113.226 0-257.788 15.973-367.053 45.71-0.057 0.014-0.114 0.025-0.172 0.039-0.153 0.039-0.3 0.087-0.452 0.127l-0.06 0.016v0.001c-34.036 8.952-54.175 42.323-45.017 74.803l99.985 375.384c9.199 32.622 44.465 51.992 78.796 43.283v0.015c75.385-16.47 153.635-25.305 233.998-25.305 80.352 0 158.594 8.833 233.971 25.299v-0.016c34.337 8.725 69.618-10.647 78.819-43.277l99.985-375.384c8.997-31.902-10.277-64.661-43.217-74.298zM309.779 619.285l-68.68-257.839c89.573-17.343 189.315-26.586 271.869-26.586 82.567 0 182.329 9.245 271.913 26.595l-68.676 257.83c-66.002-11.548-133.875-17.676-203.211-17.676-69.338 0-137.212 6.128-203.215 17.676z"
		fill="#5E9DF3" p-id="22524"></path>
	<path
		d="M388.609 438.513c22.899 0 41.463 18.562 41.463 41.461V770.2c0 22.899-18.564 41.461-41.463 41.461-22.897 0-41.461-18.562-41.461-41.461V479.974c0-22.899 18.564-41.461 41.461-41.461zM512.994 459.243c22.899 0 41.459 18.562 41.459 41.461V749.47c0 22.899-18.56 41.461-41.459 41.461-22.899 0-41.461-18.562-41.461-41.461V500.704c0-22.899 18.562-41.461 41.461-41.461zM637.377 438.513c22.897 0 41.461 18.562 41.461 41.461V770.2c0 22.899-18.564 41.461-41.461 41.461-22.899 0-41.461-18.562-41.461-41.461V479.974c0-22.899 18.562-41.461 41.461-41.461z"
		fill="#5E9DF3" p-id="22525"></path>
	<path
		d="M260.252 627.175c34.346 0 62.191 27.843 62.191 62.191 0 34.346-27.845 62.191-62.191 62.191-34.348 0-62.191-27.845-62.191-62.191 0-34.348 27.843-62.191 62.191-62.191zM865.788 254.233c34.348 0 62.191 27.843 62.191 62.191 0 34.346-27.843 62.191-62.191 62.191-34.346 0-62.189-27.845-62.189-62.191 0-34.348 27.843-62.191 62.189-62.191z"
		fill="#3080EE" p-id="22526"></path>
</svg>