<svg t="1697178356185" class="icon" viewBox="0 0 1109 1024" version="1.1" xmlns="http://www.w3.org/2000/svg"
	p-id="32463" width="200" height="200">
	<path
		d="M386.986667 906.666667a381.397333 381.397333 0 0 1-149.973334-30.464 386.389333 386.389333 0 0 1-122.624-82.858667A386.346667 386.346667 0 0 1 31.530667 670.72a381.397333 381.397333 0 0 1-30.506667-149.930667v-16.426666c0-51.882667 10.24-102.314667 30.506667-149.930667A386.346667 386.346667 0 0 1 114.346667 231.808 386.346667 386.346667 0 0 1 237.013333 148.906667a381.397333 381.397333 0 0 1 149.930667-30.464h93.866667L441.301333 59.733333a37.973333 37.973333 0 0 1 63.061334-42.410666l79.36 117.888a37.973333 37.973333 0 0 1-31.573334 59.221333H386.986667A307.626667 307.626667 0 0 0 168.106667 285.525333a307.626667 307.626667 0 0 0-91.050667 218.88v16.384a307.626667 307.626667 0 0 0 91.050667 218.794667 307.626667 307.626667 0 0 0 218.88 91.093333 37.973333 37.973333 0 0 1 0 75.989334zM629.888 1021.653333a37.973333 37.973333 0 0 1-31.530667-16.768l-77.653333-114.944a37.973333 37.973333 0 0 1 31.488-59.306666h165.248a307.626667 307.626667 0 0 0 218.837333-91.050667 307.626667 307.626667 0 0 0 91.050667-218.794667v-16.426666a307.626667 307.626667 0 0 0-91.050667-218.837334 307.626667 307.626667 0 0 0-218.88-91.050666 37.973333 37.973333 0 0 1 0-75.989334c51.925333 0 102.4 10.24 149.973334 30.464a386.346667 386.346667 0 0 1 122.624 82.858667 386.389333 386.389333 0 0 1 82.858666 122.624 381.397333 381.397333 0 0 1 30.464 149.930667v16.426666c0 51.882667-10.24 102.314667-30.464 149.930667a386.346667 386.346667 0 0 1-82.858666 122.624 386.389333 386.389333 0 0 1-122.624 82.858667 381.397333 381.397333 0 0 1-149.930667 30.464h-93.696l37.589333 55.68a37.973333 37.973333 0 0 1-31.445333 59.306666z"
		fill="#44E6FE" p-id="32464"></path>
	<path
		d="M711.466667 709.973333a37.973333 37.973333 0 0 1-27.050667-11.264l-255.146667-258.432v231.68a37.973333 37.973333 0 0 1-76.074666 0v-324.266666a37.973333 37.973333 0 0 1 65.066666-26.709334l255.189334 258.432V347.690667a37.973333 37.973333 0 0 1 76.032 0v324.266666a37.973333 37.973333 0 0 1-37.973334 38.016z"
		fill="#44E6FE" p-id="32465"></path>
</svg>