<svg t="1697185804232" class="icon" viewBox="0 0 1024 1024" version="1.1" xmlns="http://www.w3.org/2000/svg"
	p-id="18869" width="200" height="200">
	<path
		d="M588.8 42.666667L896 355.541333v516.266667C896 932.309333 847.872 981.333333 788.48 981.333333H235.52C176.128 981.333333 128 932.266667 128 871.808V152.192C128 91.690667 176.128 42.666667 235.52 42.666667h353.28z"
		fill="#F7B500" p-id="18870"></path>
	<path
		d="M448.426667 693.674667L512 469.845333l63.573333 223.829334c5.333333 18.730667 22.442667 31.658667 41.898667 31.658666 19.712 0 37.248-12.501333 43.648-31.146666L755.2 421.162667A28.032 28.032 0 0 0 728.704 384c-23.253333 0-43.690667 15.445333-50.048 37.802667l-62.506667 220.330666-62.464-226.389333a43.221333 43.221333 0 0 0-83.370666 0L407.893333 642.133333 345.344 421.802667A52.010667 52.010667 0 0 0 295.296 384a28.032 28.032 0 0 0-26.453333 37.162667l94.037333 273.066666c6.4 18.602667 23.893333 31.104 43.648 31.104 19.456 0 36.565333-12.928 41.898667-31.658666z"
		fill="#FFFFFF" p-id="18871"></path>
	<path d="M896 355.541333h-194.261333c-59.306667 0-112.938667-54.528-112.938667-115.029333V42.666667L896 355.541333z"
		fill="#FAD266" p-id="18872"></path>
</svg>