<svg t="1697010927769" class="icon" viewBox="0 0 1024 1024" version="1.1" xmlns="http://www.w3.org/2000/svg"
	p-id="31039" width="200" height="200">
	<path
		d="M512 0l443.403861 256v512L512 1024 68.596139 768v-512L512 0z m0 31.955521L96.269838 271.978749v480.040525L512 992.042502l415.728185-240.023228V271.978749L512 31.955521z"
		p-id="31040"></path>
	<path
		d="M223.141066 579.168865l13.837837 23.969112-147.094239 84.91095-13.837838-23.969112 147.096216-84.91095zM498.162162 20.610471l27.675676 0.067212-1.008185 416.295537-49.25875 28.436757-13.837837-23.969112 35.460448-20.470116 0.968648-400.360278z"
		p-id="31041"></path>
	<path
		d="M798.755583 578.577792l151.694332 87.593513-13.839815 23.967135-151.694332-87.593513 13.837838-23.967135zM518.918919 416.991382l40.279969 23.255475-13.839815 23.967135-40.277992-23.257451 13.837838-23.967136z"
		p-id="31042"></path>
	<path
		d="M941.884293 657.218224l13.992031 23.880154L512 941.196355 68.123676 681.098378l13.992031-23.880154L512 909.120247z"
		p-id="31043"></path>
	<path
		d="M523.861004 913.297297v94.087413h-23.722008V913.297297zM805.536124 308.457266L672.123552 231.431907l-133.412571 77.025359V672.084015L672.123552 749.109375l133.412572-77.02536V308.457266zM672.123552 258.822919l109.688587 63.329853v336.233761L672.123552 721.716386l-109.690564-63.329853V322.152772L672.123552 258.822919zM481.335351 308.457266L347.92278 231.431907l-133.412572 77.025359V672.084015L347.92278 749.109375l133.412571-77.02536V308.457266zM347.92278 258.822919l109.688587 63.329853v336.233761L347.92278 721.716386l-109.690564-63.329853V322.152772L347.92278 258.822919z"
		p-id="31044"></path>
	<path
		d="M787.64973 305.088741l12.048803 20.432556L672.123552 400.747737l-127.574981-75.22644 12.048804-20.432556L672.123552 373.206486zM463.448958 305.088741l12.048803 20.432556L347.92278 400.747737l-127.574981-75.22644 12.048803-20.432556L347.92278 373.206486z"
		p-id="31045"></path>
	<path
		d="M683.984556 373.621622v361.792247h-23.722008V373.621622zM359.783784 373.621622v361.792247h-23.722008V373.621622z"
		p-id="31046"></path>
</svg>