<svg t="1697184016441" class="icon" viewBox="0 0 1024 1024" version="1.1" xmlns="http://www.w3.org/2000/svg" p-id="11690" width="200" height="200"><path d="M756.736 674.816c-2.048 34.816-6.144 72.704-12.288 108.544-2.048 11.264-12.288 21.504-23.552 22.528-69.632 9.216-139.264 13.312-208.896 13.312-68.608 0-138.24-4.096-206.848-13.312-11.264-1.024-21.504-12.288-23.552-22.528-10.24-57.344-15.36-115.712-15.36-173.056 0-58.368 5.12-116.736 14.336-173.056 2.048-11.264 12.288-21.504 23.552-23.552 41.984-5.12 83.968-8.192 124.928-10.24 0 0 33.792-2.048 31.744-32.768-2.048-28.672-51.2-47.104-51.2-96.256 0-38.912 38.912-69.632 101.376-69.632 62.464 0 101.376 31.744 101.376 69.632 0 48.128-48.128 67.584-50.176 96.256-2.048 31.744 30.72 32.768 30.72 32.768 41.984 2.048 84.992 5.12 126.976 10.24 11.264 2.048 21.504 12.288 23.552 23.552 7.168 39.936 11.264 75.776 13.312 114.688 1.024 11.264-9.216 20.48-21.504 20.48-4.096 0-7.168-1.024-11.264-1.024-12.288 0-29.696-7.168-37.888-16.384 0 0-27.648-27.648-56.32-27.648-47.104-1.024-83.968 41.984-83.968 87.04s35.84 88.064 82.944 87.04c28.672-1.024 56.32-29.696 56.32-29.696 9.216-8.192 25.6-16.384 37.888-16.384 4.096-1.024 7.168-1.024 11.264-1.024 14.336 1.024 23.552 10.24 22.528 20.48z" fill="#FFFFFF" p-id="11691"></path></svg>
