<svg t="1697007453057" class="icon" viewBox="0 0 1024 1024" version="1.1" xmlns="http://www.w3.org/2000/svg"
	p-id="16941" width="200" height="200">
	<path
		d="M910.94 174.53L776.6 40.19A137.25 137.25 0 0 0 679.59 0H234.45A161.59 161.59 0 0 0 72.87 161.59v700.82A161.59 161.59 0 0 0 234.45 1024h555.1a161.59 161.59 0 0 0 161.58-161.59V271.55a137.15 137.15 0 0 0-40.19-97.02z m-298 310a27.45 27.45 0 0 1 0 54.89H408.5v129.84h234.43a27.44 27.44 0 1 1 0 54.88H381.06a27.45 27.45 0 0 1-27.44-27.44V327.31a27.45 27.45 0 0 1 27.44-27.44h261.88a27.44 27.44 0 0 1 0 54.88H408.5v129.81z"
		fill="#8B72F7" p-id="16942"></path>
</svg>