<svg t="1697177485966" class="icon" viewBox="0 0 1024 1024" version="1.1" xmlns="http://www.w3.org/2000/svg"
	p-id="28060" width="200" height="200">
	<path d="M512 512m-512 0a512 512 0 1 0 1024 0 512 512 0 1 0-1024 0Z" fill="#4A90E2" fill-opacity="0" p-id="28061">
	</path>
	<path
		d="M773.819733 366.4384l-247.534933-142.455467a13.0048 13.0048 0 0 0-14.216533 0L264.533333 365.021867h-1.416533c-4.266667 2.833067-7.1168 7.0656-7.1168 12.714666v283.477334c0 5.649067 2.850133 9.898667 7.1168 12.6976l247.517867 143.872c2.850133 1.416533 4.266667 1.416533 7.1168 1.416533 2.850133 0 4.266667 0 7.1168-1.416533L773.802667 675.328c4.266667-2.816 7.1168-7.048533 7.1168-12.6976V379.136c0-5.632-2.850133-9.8816-7.1168-12.6976z m-270.2848 163.618133v249.6512L285.866667 654.165333V404.514133l217.6512 125.5424z m122.333867 18.3296v-71.936l31.300267-18.3296v71.936l-31.300267 18.3296z m-92.4672-18.3296l62.600533-36.693333v80.418133c0 5.632 2.833067 9.864533 7.1168 12.680534 2.833067 1.416533 7.099733 2.816 11.3664 1.416533 1.4336 0 2.850133 0 4.266667-1.416533l62.600533-35.259734c4.266667-2.816 7.1168-7.048533 7.1168-12.6976v-97.314133l62.583467-36.676267V654.165333l-217.6512 125.5424V530.056533z m-78.2336-239.786666l62.583467-36.676267 219.0848 125.5424-62.583467 36.676267-219.0848-125.5424z m-61.184 35.259733L425.301333 307.2l217.6512 125.525333-32.7168 18.346667-216.234666-125.5424z m187.784533 142.455467l-62.583466 36.693333-219.0848-125.5424 64-36.693333 217.668266 125.5424z"
		fill="#4A90E2" p-id="28062"></path>
</svg>