<svg t="1697007794674" class="icon" viewBox="0 0 1024 1024" version="1.1" xmlns="http://www.w3.org/2000/svg"
	p-id="17917" width="200" height="200">
	<path
		d="M716.8 36.743529c-42.164706 17.468235-66.258824 64.451765-54.211765 106.014118 12.649412 45.176471 42.164706 68.065882 87.94353 68.065882 92.16 0 124.687059-108.423529 49.392941-164.442353-18.070588-13.854118-62.042353-18.672941-83.124706-9.637647zM292.141176 83.727059C240.941176 96.376471 206.004706 133.12 192.150588 188.536471c-8.432941 32.527059-10.24 122.88-3.011764 150.588235 3.011765 12.649412 1.204706 17.468235-6.625883 19.877647C109.628235 383.698824 33.129412 442.127059 12.047059 489.110588c-35.538824 77.703529 14.456471 160.225882 129.505882 213.232941 43.369412 19.877647 49.995294 25.298824 46.98353 35.538824-8.432941 27.708235-4.216471 132.517647 6.625882 164.442353 19.877647 59.030588 68.065882 96.978824 121.675294 97.581176 40.357647 0 98.785882-21.684706 146.371765-54.211764 24.094118-16.263529 45.778824-30.117647 48.790588-30.117647s24.696471 13.854118 48.790588 30.117647c69.872941 48.188235 142.155294 65.054118 190.945883 44.574117 60.235294-24.696471 87.341176-79.510588 87.341176-177.091764 0-34.936471-1.807059-68.668235-3.614118-75.294118-3.011765-10.24 3.614118-15.661176 46.98353-35.538824 114.447059-53.007059 165.044706-135.529412 130.108235-212.630588-21.082353-45.778824-77.101176-92.16-145.167059-119.868235l-33.129411-13.251765 1.807058-30.117647c1.807059-27.105882 0.602353-31.322353-13.251764-40.357647-14.456471-9.637647-16.865882-9.637647-30.117647-0.602353-9.637647 6.023529-15.661176 16.263529-16.865883 28.912941-1.807059 22.287059 3.011765 22.287059-76.498823 7.830589-48.188235-8.432941-59.030588-12.649412-69.270589-25.901177-7.228235-9.035294-25.901176-30.72-42.164705-48.790588l-28.912942-32.527059 21.684706-19.877647c24.094118-22.287059 27.105882-37.948235 10.842353-52.404706-15.661176-14.456471-25.901176-12.649412-54.211764 7.830588L512 168.658824l-46.983529-32.527059c-64.451765-43.369412-129.505882-63.247059-172.875295-52.404706z m96.376471 78.305882c19.877647 9.637647 45.176471 25.298824 56.018824 34.334118l20.48 17.468235-29.515295 33.129412c-15.661176 18.672941-34.334118 40.357647-40.96 48.790588-9.637647 12.047059-22.889412 17.468235-75.294117 27.105882-45.176471 9.035294-64.451765 10.842353-67.46353 6.02353-7.228235-10.842353-5.421176-105.411765 2.409412-131.312941 16.263529-54.211765 67.463529-68.065882 134.324706-35.538824z m145.769412 116.254118c10.842353 10.842353 19.877647 21.684706 19.877647 24.094117 0 2.409412-18.672941 4.818824-42.164706 4.818824-22.889412 0-42.164706-1.807059-42.164706-4.216471 0-4.818824 36.743529-43.971765 41.562353-43.971764 1.807059 0 12.047059 8.432941 22.889412 19.275294z m60.235294 92.762353c18.070588 3.614118 36.743529 30.117647 92.762353 131.312941l19.275294 34.936471-21.684706 43.971764c-12.047059 24.094118-33.731765 63.247059-48.790588 86.738824L608.376471 710.776471H417.430588l-30.72-46.98353c-16.865882-25.298824-39.152941-64.451765-49.995294-86.13647l-19.275294-40.357647 19.275294-34.936471c48.188235-87.341176 75.896471-128.301176 87.94353-130.710588 19.877647-4.216471 150.588235-4.818824 169.863529-0.602353z m-274.070588 33.731764c-6.625882 10.842353-17.468235 28.912941-23.491765 39.755295l-12.047059 19.275294-7.228235-24.696471c-4.216471-13.854118-9.035294-28.310588-10.842353-33.129412-3.011765-7.830588 24.094118-18.672941 51.2-19.877647l14.456471-0.602353-12.047059 19.275294z m416.225882-12.649411c15.058824 4.216471 22.287059 9.035294 20.48 14.45647-1.807059 4.216471-6.625882 18.672941-10.842353 32.527059l-7.228235 24.696471-12.047059-19.275294c-6.023529-10.842353-16.865882-28.912941-23.491765-39.755295-11.444706-18.070588-11.444706-19.275294-0.602353-19.275294 6.023529 0 21.082353 3.011765 33.731765 6.625883z m-522.842353 49.392941c2.409412 10.24 11.444706 36.141176 19.877647 57.223529l15.058824 38.550589-19.877647 57.825882c-10.842353 31.924706-21.684706 60.837647-24.094118 63.247059-2.409412 3.011765-19.275294-1.807059-37.948235-10.24-77.101176-36.743529-115.049412-84.329412-100.592941-127.096471 9.035294-27.708235 53.609412-66.861176 98.183529-87.341176 20.48-9.035294 39.152941-15.661176 41.562353-14.456471 1.807059 1.204706 6.023529 11.444706 7.830588 22.287059z m668.009412 2.409412c28.310588 14.456471 68.668235 55.416471 75.89647 77.101176 14.456471 42.767059-23.491765 90.352941-100.592941 127.096471-18.672941 8.432941-35.538824 13.251765-37.948235 10.24-2.409412-2.409412-13.251765-31.322353-24.094118-63.247059l-19.877647-58.428235 12.649412-31.924706c6.625882-17.468235 15.661176-42.767059 19.877647-56.018824 3.614118-13.251765 7.830588-25.901176 9.637647-28.310588 1.807059-4.216471 31.322353 6.625882 64.451765 23.491765z m-572.235294 213.232941c12.047059 20.48 21.082353 37.948235 20.48 39.152941-1.204706 1.204706-15.661176-1.807059-31.924706-6.023529-24.094118-6.023529-29.515294-9.637647-28.310588-19.275295 2.409412-15.058824 13.854118-50.597647 16.263529-50.597647 0.602353 0 11.444706 16.865882 23.491765 36.74353z m443.934117 10.842353c2.409412 13.251765-0.602353 15.661176-27.708235 22.287059-16.263529 4.216471-30.72 7.228235-31.924706 6.023529-0.602353-1.204706 8.432941-19.275294 21.082353-39.755294l22.287059-37.948235 7.228235 17.468235c4.216471 9.637647 8.432941 24.094118 9.035294 31.924706z m-420.442353 91.557647c44.574118 7.228235 47.585882 9.035294 68.668236 34.93647 12.047059 15.058824 31.322353 37.948235 43.369412 50.597647l21.684705 22.889412-18.070588 14.456471c-27.708235 22.287059-89.148235 51.802353-115.651765 55.41647-33.129412 4.216471-57.825882-9.637647-73.487058-42.164705-10.24-21.082353-12.649412-37.345882-12.649412-83.124706 0-31.924706 1.807059-59.632941 4.21647-62.042353 3.011765-2.409412 11.444706-3.011765 19.877648-1.807059 8.432941 1.807059 36.141176 6.625882 62.042352 10.842353z m440.922353 56.621176c0 58.428235-1.807059 68.668235-13.854117 87.94353-16.263529 26.503529-41.562353 38.550588-72.282353 33.731764-25.298824-4.216471-86.136471-34.334118-112.64-55.41647l-18.070588-14.456471 19.275294-19.877647c10.24-10.842353 29.515294-33.129412 42.767059-49.995294 24.094118-29.515294 24.696471-30.117647 77.101176-39.755294 83.124706-15.661176 77.703529-19.877647 77.703529 57.825882zM554.164706 777.035294c-0.602353 1.807059-9.637647 13.854118-21.082353 27.105882l-21.082353 24.094118-21.082353-24.094118c-11.444706-13.251765-20.48-25.298824-21.082353-27.105882 0-1.807059 19.275294-3.011765 42.164706-3.011765 23.491765 0 42.164706 1.204706 42.164706 3.011765z"
		p-id="17918"></path>
</svg>