<svg t="1697185659986" class="icon" viewBox="0 0 1024 1024" version="1.1" xmlns="http://www.w3.org/2000/svg"
	p-id="17827" width="200" height="200">
	<path
		d="M512 0C229.236364 0 0 229.236364 0 512s229.236364 512 512 512 512-229.236364 512-512S794.763636 0 512 0z m-57.250909 657.384727h-123.066182c-28.253091 0-51.2-21.643636-52.363636-48.709818h472.482909c-1.163636 27.042909-24.110545 48.709818-52.363637 48.709818h-130.90909v51.386182h93.27709c12.544 0 22.737455 9.867636 22.737455 22.085818 0 12.218182-10.193455 22.109091-22.737455 22.109091H357.096727c-12.520727 0-22.737455-9.890909-22.737454-22.109091 0-12.218182 10.193455-22.109091 22.737454-22.109091h97.652364v-51.362909zM331.682909 279.272727h367.802182c28.904727 0 52.433455 22.737455 52.433454 50.827637v251.298909H279.272727V330.100364C279.272727 302.010182 302.731636 279.272727 331.682909 279.272727z m76.055273 229.585455a13.335273 13.335273 0 0 0 2.164363-19.153455l-43.566545-52.689454 44.008727-58.577455a13.358545 13.358545 0 0 0-3.118545-19.037091 14.336 14.336 0 0 0-19.618909 3.002182l-50.362182 67.025455a13.288727 13.288727 0 0 0 0.395636 16.593454l50.338909 60.741818a14.289455 14.289455 0 0 0 19.758546 2.094546z m89.716363-1.256727l50.827637-137.192728a13.591273 13.591273 0 0 0-8.448-17.501091 14.219636 14.219636 0 0 0-17.989818 8.238546l-50.850909 137.192727a13.498182 13.498182 0 0 0 8.471272 17.454546 14.056727 14.056727 0 0 0 17.989818-8.192z m145.733819-0.814546l50.362181-60.765091a13.218909 13.218909 0 0 0 0.372364-16.523636l-50.338909-67.025455a14.336 14.336 0 0 0-19.642182-3.025454 13.358545 13.358545 0 0 0-3.095273 19.037091l44.008728 58.577454-43.589818 52.642909a13.335273 13.335273 0 0 0 2.187636 19.153455 14.289455 14.289455 0 0 0 19.735273-2.071273z"
		fill="#268BFF" p-id="17828"></path>
</svg>