<svg t="1697010265445" class="icon" viewBox="0 0 1024 1024" version="1.1" xmlns="http://www.w3.org/2000/svg"
	p-id="30010" width="200" height="200">
	<path d="M0 1024h1024V0H0v1024z" fill="#FFFFFF" p-id="30011"></path>
	<path d="M0 1024h1024V0H0v1024z" fill="#0091FF" p-id="30012"></path>
	<path
		d="M618.8032 346.624a49.0496 49.0496 0 1 0-97.9968 0V506.88a109.056 109.056 0 1 1-218.0096 0V346.624a49.0496 49.0496 0 1 0-97.9968 0V506.88a207.0528 207.0528 0 1 0 414.0032 0zM780.3904 296.96a49.2544 49.2544 0 0 0-48.9472 49.664v320.512a49.0496 49.0496 0 1 0 97.9968 0v-320.512A49.3568 49.3568 0 0 0 780.3904 296.96z"
		fill="#FFFFFF" p-id="30013"></path>
</svg>