<svg t="1697010249029" class="icon" viewBox="0 0 1024 1024" version="1.1" xmlns="http://www.w3.org/2000/svg"
	p-id="29875" width="200" height="200">
	<path
		d="M494.933333 853.333333c119.466667 0 204.8-34.133333 273.066667-102.4 62.577778-68.266667 96.711111-170.666667 96.711111-301.511111V0h-147.911111v455.111111c0 85.333333-17.066667 147.911111-51.2 193.422222-34.133333 39.822222-91.022222 62.577778-170.666667 62.577778s-136.533333-22.755556-170.666666-62.577778c-34.133333-45.511111-51.2-108.088889-51.2-193.422222V0H125.155556v455.111111c0 130.844444 34.133333 233.244444 96.711111 301.511111C284.444444 819.2 375.466667 853.333333 494.933333 853.333333zM904.533333 938.666667H85.333333V1024h819.2z"
		fill="#626262" p-id="29876"></path>
</svg>